# Blender v2.78 (sub 0) OBJ File: 'GEOpenGLTest.blend'
# www.blender.org
o Cube
v 2.000000 0.531355 -1.468645
v 1.468645 0.000000 -1.468645
v 1.468645 0.531355 -2.000000
v 2.000000 0.531355 -0.531355
v 1.468645 0.531355 0.000000
v 1.468645 0.000000 -0.531355
v 0.531355 0.531355 -0.000000
v -0.000000 0.531355 -0.531355
v 0.531355 0.000000 -0.531355
v 0.531355 0.531355 -2.000000
v 0.531355 0.000000 -1.468645
v 0.000000 0.531355 -1.468645
v 1.468645 1.468645 -2.000000
v 1.468645 2.000000 -1.468645
v 2.000000 1.468645 -1.468645
v 1.468645 1.468645 0.000000
v 2.000000 1.468645 -0.531355
v 1.468645 2.000000 -0.531355
v -0.000000 1.468645 -0.531355
v 0.531355 1.468645 -0.000000
v 0.531355 2.000000 -0.531355
v 0.000000 1.468645 -1.468645
v 0.531355 2.000000 -1.468645
v 0.531355 1.468645 -2.000000
vt 0.9921 0.0079
vt 0.0079 0.9921
vt 0.9921 0.9921
vt 0.9921 0.9921
vt 0.0079 0.0079
vt 0.9921 0.0079
vt 0.0079 0.0079
vt 0.9921 0.9921
vt 0.9921 0.0079
vt 0.0079 0.9921
vt 0.9921 0.0079
vt 0.9921 0.9921
vt 0.9921 0.9921
vt 0.0079 0.0079
vt 0.9921 0.0079
vt 1.1776 0.8195
vt 0.8173 0.8195
vt 0.8173 1.1798
vt 1.1776 0.1840
vt 0.8173 -0.1763
vt 0.8173 0.1840
vt 0.1818 -0.1763
vt -0.1785 0.1840
vt 0.1818 0.1840
vt 0.1818 1.1798
vt 0.1818 0.8195
vt -0.1785 0.8195
vt 0.8173 1.1798
vt 0.8173 0.8195
vt 1.1776 0.8195
vt 0.8173 -0.1763
vt 1.1776 0.1840
vt 0.8173 0.1840
vt -0.1785 0.1840
vt 0.1818 -0.1763
vt 0.1818 0.1840
vt -0.1785 0.8195
vt 0.1818 0.8195
vt 0.1818 1.1798
vt 0.9979 0.1797
vt 0.8170 0.8205
vt 0.8170 0.1797
vt 0.1811 0.0012
vt 0.8170 0.0012
vt 0.1686 0.5000
vt 0.0885 0.4000
vt 0.1686 0.4000
vt 0.8170 0.9990
vt 0.1811 0.8205
vt 0.0884 0.6000
vt 0.0083 0.5000
vt 0.0884 0.5000
vt 0.0002 0.1797
vt 0.0002 0.8205
vt 0.0884 0.5000
vt 0.0083 0.4000
vt 0.0884 0.4000
vt 0.1686 0.5000
vt 0.0885 0.6000
vt 0.0885 0.5000
vt 0.8187 0.1800
vt 0.9986 0.8208
vt 0.8187 0.8208
vt 0.1794 0.9999
vt 0.8187 0.9999
vt 0.1794 0.1800
vt 0.8187 0.0009
vt 0.1794 0.8208
vt -0.0005 0.1801
vt 0.9921 0.0079
vt 0.0079 0.9921
vt 0.9921 0.9921
vt 0.0079 0.0079
vt 0.0079 0.9921
vt 0.0079 0.9921
vt 0.0079 0.0079
vt 0.0079 0.9921
vt 0.9979 0.8205
vt 0.1811 0.1797
vt 0.0885 0.5000
vt 0.1811 0.9990
vt 0.0083 0.6000
vt 0.0083 0.5000
vt 0.1686 0.6000
vt 0.9986 0.1800
vt 0.1794 0.0009
vt -0.0005 0.8208
vt 0.0079 0.0079
vn 0.3416 -0.3416 -0.8756
vn -0.3416 0.3416 -0.8756
vn 0.3416 0.3416 -0.8756
vn 0.3416 0.3416 0.8756
vn -0.3416 -0.3416 0.8756
vn 0.3416 -0.3416 0.8756
vn -0.8756 -0.3416 0.3416
vn -0.8756 0.3416 -0.3416
vn -0.8756 -0.3416 -0.3416
vn -0.3416 0.8756 -0.3416
vn 0.3416 0.8756 0.3416
vn 0.3416 0.8756 -0.3416
vn 0.8756 0.3416 -0.3416
vn 0.8756 -0.3416 0.3416
vn 0.8756 -0.3416 -0.3416
vn 0.3416 -0.8756 -0.3416
vn 0.3416 -0.8756 0.3416
vn -0.3416 -0.8756 0.3416
vn -0.3416 -0.3416 -0.8756
vn -0.3416 -0.8756 -0.3416
vn 0.8756 0.3416 0.3416
vn -0.8756 0.3416 0.3416
vn -0.3416 0.3416 0.8756
vn -0.3416 0.8756 0.3416
s 1
f 3/1/1 24/2/2 13/3/3
f 16/4/4 7/5/5 5/6/6
f 8/7/7 22/8/8 12/9/9
f 23/10/10 18/11/11 14/12/12
f 15/13/13 4/14/14 1/15/15
f 1/16/15 2/17/16 3/18/1
f 4/19/14 5/20/6 6/21/17
f 7/22/5 8/23/7 9/24/18
f 10/25/19 11/26/20 12/27/9
f 13/28/3 14/29/12 15/30/13
f 16/31/4 17/32/21 18/33/11
f 19/34/22 20/35/23 21/36/24
f 22/37/8 23/38/10 24/39/2
f 1/40/15 6/41/17 2/42/16
f 2/42/16 10/43/19 3/44/1
f 13/45/3 1/46/15 3/47/1
f 5/48/6 9/49/18 6/41/17
f 17/50/21 5/51/6 4/52/14
f 12/53/9 9/49/18 8/54/7
f 20/55/23 8/56/7 7/57/5
f 12/58/9 24/59/2 10/60/19
f 18/61/11 15/62/13 14/63/12
f 24/64/2 14/63/12 13/65/3
f 21/66/24 16/67/4 18/61/11
f 23/68/10 19/69/22 21/66/24
f 6/70/17 11/71/20 2/72/16
f 3/1/1 10/73/19 24/2/2
f 16/4/4 20/74/23 7/5/5
f 8/7/7 19/75/22 22/8/8
f 23/10/10 21/76/24 18/11/11
f 15/13/13 17/77/21 4/14/14
f 1/40/15 4/78/14 6/41/17
f 2/42/16 11/79/20 10/43/19
f 13/45/3 15/80/13 1/46/15
f 5/48/6 7/81/5 9/49/18
f 17/50/21 16/82/4 5/51/6
f 12/53/9 11/79/20 9/49/18
f 20/55/23 19/83/22 8/56/7
f 12/58/9 22/84/8 24/59/2
f 18/61/11 17/85/21 15/62/13
f 24/64/2 23/68/10 14/63/12
f 21/66/24 20/86/23 16/67/4
f 23/68/10 22/87/8 19/69/22
f 6/70/17 9/88/18 11/71/20
